<svg id="svg" version="1.1" xmlns="http://www.w3.org/2000/svg" xmlns:xlink="http://www.w3.org/1999/xlink" width="400" height="517.9310344827586" viewBox="0, 0, 400,517.9310344827586"><g id="svgg"><path id="path0" d="M197.241 56.644 C 149.282 61.545,101.839 95.291,90.101 132.852 C 81.505 160.361,90.212 187.731,112.324 202.706 C 120.778 208.431,142.594 217.241,148.316 217.241 C 151.009 217.241,149.525 218.402,143.966 220.644 C 78.490 247.050,46.555 304.541,66.291 360.475 C 93.222 436.800,205.783 457.060,268.811 396.927 C 329.412 339.109,328.654 252.340,267.454 241.651 C 223.340 233.946,177.720 270.227,177.610 313.103 C 177.496 357.465,231.349 364.294,241.638 321.223 C 242.047 319.512,241.791 319.193,238.802 317.682 L 235.517 316.022 232.414 319.143 C 223.370 328.240,208.860 328.218,200.992 319.096 C 178.899 293.481,211.267 252.288,247.086 260.435 C 284.010 268.833,300.331 318.461,279.653 359.462 C 243.875 430.403,141.698 436.552,108.314 369.773 C 98.621 350.383,95.979 321.105,101.766 297.204 C 112.640 252.298,152.521 219.944,206.429 212.297 L 212.513 211.434 212.143 209.337 C 211.939 208.185,211.563 205.589,211.308 203.570 C 210.887 200.248,210.702 199.934,209.356 200.272 C 186.473 206.015,164.786 204.852,151.097 197.148 C 107.818 172.791,111.317 97.447,156.420 82.541 C 173.486 76.900,186.705 78.250,219.848 89.016 C 268.935 104.961,298.302 103.419,327.657 83.354 C 336.298 77.448,336.201 77.607,333.742 73.347 L 331.703 69.816 326.248 72.175 C 310.488 78.989,298.143 77.841,262.559 66.254 C 234.014 56.960,217.678 54.556,197.241 56.644 " stroke="none" fill="#000000" fill-rule="evenodd"></path></g></svg>