<?xml version="1.0" standalone="no"?>
<!DOCTYPE svg PUBLIC "-//W3C//DTD SVG 20010904//EN"
 "http://www.w3.org/TR/2001/REC-SVG-20010904/DTD/svg10.dtd">
<svg version="1.0" xmlns="http://www.w3.org/2000/svg"
 width="1280.000000pt" height="1280.000000pt" viewBox="0 0 1280.000000 1280.000000"
 preserveAspectRatio="xMidYMid meet">
<metadata>
Created by potrace 1.15, written by Peter Selinger 2001-2017
</metadata>
<g transform="translate(0.000000,1280.000000) scale(0.100000,-0.100000)"
fill="#000000" stroke="none">
<path d="M8525 8769 c-350 -45 -744 -286 -973 -597 -167 -226 -353 -587 -488
-947 -51 -136 -53 -140 -86 -148 -51 -12 -1025 6 -1038 19 -17 17 31 154 103
296 146 287 335 543 480 651 29 22 37 35 37 59 0 30 -1 30 -37 23 -21 -5 -87
-8 -148 -8 -112 1 -140 6 -550 95 -143 31 -160 33 -355 32 -183 0 -219 -3
-330 -27 -297 -62 -506 -164 -662 -320 -120 -119 -184 -237 -214 -390 -19 -95
-12 -130 29 -143 34 -11 57 26 77 125 24 117 58 179 146 268 59 58 92 81 176
122 275 134 573 140 1200 26 145 -27 192 -40 186 -53 -2 -4 -43 -44 -93 -88
-162 -145 -324 -343 -414 -509 -50 -92 -123 -261 -201 -465 -127 -338 -257
-566 -405 -716 -128 -130 -227 -182 -388 -205 -143 -20 -308 15 -389 82 -55
45 -50 63 25 97 120 55 164 115 155 213 -6 62 -45 121 -106 160 -43 28 -53 30
-119 27 -61 -3 -78 -8 -115 -33 -56 -40 -94 -111 -109 -205 -22 -143 7 -236
103 -326 62 -59 156 -107 254 -130 55 -13 103 -15 239 -11 239 8 357 37 560
140 286 143 481 377 675 811 57 129 82 174 101 183 38 18 1053 31 1074 13 21
-17 14 -45 -40 -175 -24 -58 -81 -200 -125 -317 -45 -117 -118 -304 -162 -415
-68 -174 -77 -205 -67 -224 11 -22 12 -22 258 -16 341 8 499 27 536 63 23 23
18 42 -15 59 -26 13 -47 14 -169 3 -149 -12 -171 -8 -171 33 0 48 169 483 271
695 95 200 143 319 232 574 226 647 317 860 468 1086 106 158 202 250 320 308
126 61 244 89 384 90 l110 1 140 -67 c199 -96 255 -99 255 -14 0 74 -153 150
-386 190 -97 17 -133 18 -239 5z"/>
</g>
</svg>
